<?xml version="1.0" standalone="no"?>
<!DOCTYPE svg PUBLIC "-//W3C//DTD SVG 20010904//EN"
 "http://www.w3.org/TR/2001/REC-SVG-20010904/DTD/svg10.dtd">
<svg version="1.0" xmlns="http://www.w3.org/2000/svg"
 width="150.000000pt" height="150.000000pt" viewBox="0 0 150.000000 150.000000"
 preserveAspectRatio="xMidYMid meet">
<metadata>
Created by potrace 1.14, written by Peter Selinger 2001-2017
</metadata>
<g transform="translate(0.000000,150.000000) scale(0.100000,-0.100000)"
fill="#000000" stroke="none">
<path d="M651 1488 c-210 -38 -390 -198 -457 -405 -22 -68 -26 -244 -8 -313
33 -124 128 -266 216 -324 59 -38 45 -2 -25 67 -85 83 -127 153 -155 253 -54
194 9 415 158 552 143 133 359 180 543 118 92 -31 143 -62 215 -129 130 -124
196 -329 160 -503 -19 -94 -84 -211 -158 -284 -71 -70 -177 -131 -255 -146
-22 -4 -43 -8 -47 -9 -5 -2 -19 -3 -33 -4 -18 -1 -23 -5 -18 -17 13 -34 181
11 280 75 218 142 318 399 251 646 -55 203 -224 367 -427 415 -65 15 -180 19
-240 8z"/>
<path d="M501 1173 c12 -32 25 -62 30 -67 5 -6 9 -27 9 -47 0 -25 8 -47 25
-67 22 -26 23 -30 6 -25 -15 4 -22 -4 -34 -44 -43 -137 -56 -271 -49 -538 5
-229 5 -285 -1 -337 -2 -21 -1 -38 3 -38 12 0 47 44 105 132 67 104 107 191
134 286 15 54 29 80 60 112 123 126 130 299 19 411 -75 74 -64 100 47 114 57
6 77 9 170 21 98 12 167 23 171 27 2 2 -57 9 -132 16 -74 7 -145 14 -157 16
-12 2 -47 6 -76 9 -30 4 -57 10 -60 15 -15 23 -117 32 -196 17 -23 -4 -56 11
-68 30 -4 8 -12 14 -17 14 -6 0 0 -26 11 -57z m274 -43 c17 -5 54 -11 84 -14
29 -2 55 -7 57 -9 3 -2 -26 -7 -63 -10 -84 -8 -117 -30 -121 -80 -3 -30 3 -40
38 -74 74 -67 99 -149 77 -246 -6 -31 -59 -118 -83 -137 -24 -20 -20 107 5
134 73 82 24 202 -112 272 -92 47 -107 81 -59 135 40 45 89 53 177 29z m-99
-212 c84 -57 114 -126 80 -187 l-13 -24 -7 34 c-11 57 -55 142 -93 176 -46 42
-29 42 33 1z m-40 -40 c32 -38 60 -98 69 -148 6 -33 2 -39 -67 -112 -41 -42
-83 -93 -93 -112 -24 -45 -33 -46 -30 -3 2 17 4 69 6 114 2 83 18 195 39 272
9 36 13 40 29 31 11 -5 31 -24 47 -42z m78 -305 c-2 -52 -7 -69 -21 -77 -64
-35 -147 -163 -178 -272 l-14 -49 5 60 c11 141 27 196 79 272 28 42 114 133
125 133 4 0 6 -30 4 -67z m-34 -194 c-29 -88 -131 -269 -150 -269 -13 0 21
131 50 195 28 61 111 166 118 147 1 -5 -7 -38 -18 -73z"/>
</g>
</svg>
